Coordinates
nRows=205
nColumns=2
inDegrees=yes
endheader
time	ankle_angle_r	
4.18723	  9.689331	
4.24973	  9.811401	
4.31222	  9.765625	
4.37472	  9.674072	
4.43722	  9.780884	
4.49971	  9.719849	
4.56221	  9.674072	
4.6247	  9.765625	
4.6872	  9.674072	
4.7497	  9.658813	
4.81219	  9.780884	
4.87469	  9.689331	
4.93718	  9.735107	
4.99968	  9.780884	
5.06218	  9.597778	
5.12467	  9.689331	
5.18717	  9.704590	
5.24966	  9.658813	
5.31216	  9.811401	
5.37466	  9.780884	
5.43715	  9.750366	
5.49965	  9.765625	
5.56214	  9.582520	
5.62464	  9.735107	
5.68714	  9.719849	
5.74963	  9.674072	
5.81213	  9.826660	
5.87462	  9.719849	
5.93712	  9.704590	
5.99962	  9.780884	
6.06211	  9.674072	
6.12461	  9.704590	
6.1871	  9.765625	
6.2496	  9.628296	
6.3121	  9.750366	
6.37459	  9.674072	
6.43709	  9.674072	
6.49958	  9.689331	
6.56208	  9.658813	
6.62458	  9.521484	
6.68707	  9.628296	
6.74957	  9.613037	
6.81206	  9.567261	
6.87456	  9.689331	
6.93706	  9.674072	
6.99955	  9.719849	
7.06205	  9.704590	
7.12454	  9.567261	
7.18704	  9.658813	
7.24954	  9.658813	
7.31203	  9.613037	
7.37453	  9.765625	
7.43702	  9.750366	
7.49952	  9.780884	
7.56202	  9.765625	
7.62451	  9.674072	
7.68701	  9.719849	
7.7495	  9.750366	
7.812	  9.628296	
7.8745	  9.796143	
7.93699	  9.674072	
7.99949	  9.674072	
8.06198	  9.658813	
8.12448	  9.567261	
8.18698	  9.582520	
8.24947	  9.628296	
8.31197	  9.597778	
8.37446	  9.628296	
8.43696	  9.689331	
8.49946	  9.628296	
8.56195	  9.750366	
8.62445	  9.704590	
8.68694	  9.567261	
8.74944	  9.704590	
8.81194	  9.750366	
8.87443	  9.613037	
8.93693	  9.811401	
8.99942	  9.704590	
9.06192	  9.796143	
9.12442	  9.780884	
9.18691	  9.674072	
9.24941	  9.674072	
9.3119	  9.735107	
9.3744	  9.597778	
9.4369	  9.735107	
9.49939	  9.628296	
9.56189	  9.704590	
9.62438	  9.689331	
9.68688	  9.536743	
9.74938	  9.597778	
9.81187	  9.613037	
9.87437	  9.567261	
9.93686	  9.704590	
9.99936	  9.658813	
10.0619	  9.643555	
10.1244	  9.780884	
10.1868	  9.643555	
10.2493	  9.628296	
10.3118	  9.643555	
10.3743	  9.719849	
10.4368	  9.689331	
10.4993	  9.780884	
10.5618	  9.719849	
10.6243	  9.811401	
10.6868	  9.765625	
10.7493	  9.704590	
10.8118	  9.719849	
10.8743	  9.674072	
10.9368	  9.597778	
10.9993	  9.704590	
11.0618	  9.689331	
11.1243	  9.704590	
11.1868	  9.704590	
11.2493	  9.521484	
11.3118	  9.628296	
11.3743	  9.582520	
11.4368	  9.582520	
11.4993	  9.719849	
11.5618	  9.643555	
11.6243	  9.704590	
11.6868	  9.811401	
11.7492	  9.658813	
11.8117	  9.704590	
11.8742	  9.719849	
11.9367	  9.674072	
11.9992	  9.811401	
12.0617	  9.780884	
12.1242	  9.674072	
12.1867	  9.780884	
12.2492	  9.674072	
12.3117	  9.643555	
12.3742	  9.674072	
12.4367	  9.643555	
12.4992	  9.674072	
12.5617	  9.689331	
12.6242	  9.628296	
12.6867	  9.643555	
12.7492	  9.674072	
12.8117	  9.567261	
12.8742	  9.613037	
12.9367	  9.597778	
12.9992	  9.552002	
13.0617	  9.689331	
13.1242	  9.674072	
13.1867	  9.719849	
13.2492	  9.811401	
13.3116	  9.689331	
13.3741	  9.735107	
13.4366	  9.658813	
13.4991	  9.597778	
13.5616	  9.826660	
13.6241	  9.780884	
13.6866	  9.704590	
13.7491	  9.780884	
13.8116	  9.582520	
13.8741	  9.658813	
13.9366	  9.658813	
13.9991	  9.597778	
14.0616	  9.658813	
14.1241	  9.689331	
14.1866	  9.643555	
14.2491	  9.658813	
14.3116	  9.643555	
14.3741	  9.597778	
14.4366	  9.643555	
14.4991	  9.567261	
14.5616	  9.643555	
14.6241	  9.765625	
14.6866	  9.704590	
14.7491	  9.750366	
14.8116	  9.796143	
14.874	  9.704590	
14.9365	  9.750366	
14.999	  9.689331	
15.0615	  9.674072	
15.124	  9.811401	
15.1865	  9.719849	
15.249	  9.750366	
15.3115	  9.765625	
15.374	  9.643555	
15.4365	  9.643555	
15.499	  9.643555	
15.5615	  9.674072	
15.624	  9.796143	
15.6865	  9.765625	
15.749	  9.765625	
15.8115	  9.841919	
15.874	  9.643555	
15.9365	  9.628296	
15.999	  9.704590	
16.0615	  9.628296	
16.124	  9.658813	
16.1865	  9.704590	
16.249	  9.643555	
16.3115	  9.674072	
16.374	  9.658813	
16.4364	  9.582520	
16.4989	  9.643555	
16.5614	  9.613037	
16.6239	  9.582520	
16.6864	  9.704590	
16.7489	  9.689331	
16.8114	  9.704590	
16.8739	  9.750366	
16.9364	  9.643555	
